# xmcd
#
# Track frame offsets:
#	150
#	17640
#	38935
#	56580
#
# Disc length: 1000 seconds
#
# Revision: 4
# Processed by: cddbd v1.5.2PL0 Copyright (c) Steve Scherf et al.
# Submitted via: EasyCDDAExtractor 2010.6.0.0
#
DISCID=2b03e604
DTITLE=Marie Claire D'Ubaldo - My Father's Eyes
DYEAR=1994
DGENRE=Pop
TTITLE0=My Father's Eyes
TTITLE1=My Father's Eyes (Spanish Album Version) 
TTITLE2=Nocturna
TTITLE3=Dog meat
EXTD=
EXTT0=
EXTT1=
EXTT2=
EXTT3=
PLAYORDER=
